<svg width="1440" height="280" viewBox="0 0 1440 280" fill="none" xmlns="http://www.w3.org/2000/svg">
<path d="M1070.42 88.867C1070.42 83.0191 1069.28 77.3635 1067.03 72.0574C1064.89 67.0165 1061.85 62.5116 1057.99 58.6677C1050.44 51.1414 1040.56 46.9964 1030.17 46.9964C1019.77 46.9964 1009.89 51.1414 1002.34 58.6677C998.48 62.5116 995.44 67.0167 993.301 72.0574C991.049 77.3635 989.907 83.0191 989.907 88.867H976.797C976.797 59.4909 1000.69 35.6768 1030.17 35.6768C1059.64 35.6768 1083.53 59.4909 1083.53 88.867H1070.42Z" fill="#F97316"/>
<path d="M1057.31 88.867C1057.31 84.3518 1056.44 80.0064 1054.72 75.9517C1053.13 72.2039 1050.9 68.8822 1048.08 66.0791C1045.49 63.4985 1042.58 61.5174 1039.42 60.1913C1036.45 58.947 1033.34 58.3159 1030.17 58.3159C1026.99 58.3159 1023.88 58.947 1020.91 60.1913C1017.75 61.5174 1014.84 63.4982 1012.25 66.0791C1009.43 68.8822 1007.2 72.2039 1005.61 75.9519C1003.89 80.0066 1003.02 84.3521 1003.02 88.8672H989.908C989.908 83.0193 991.049 77.3636 993.301 72.0575C995.44 67.0166 998.481 62.5118 1002.34 58.6678C1009.89 51.1415 1019.77 46.9966 1030.17 46.9966C1040.56 46.9966 1050.44 51.1415 1057.99 58.6678C1061.85 62.5118 1064.89 67.0169 1067.03 72.0575C1069.28 77.3636 1070.42 83.0193 1070.42 88.8672L1057.31 88.867Z" fill="#FFDAA2"/>
<path d="M1045.15 88.8669C1045.15 86.0019 1044.6 83.2629 1043.52 80.7264C1042.55 78.4348 1041.2 76.4167 1039.51 74.7291C1038.04 73.2642 1036.43 72.159 1034.72 71.4438C1033.25 70.8265 1031.72 70.5135 1030.17 70.5135C1028.62 70.5135 1027.08 70.8265 1025.61 71.444C1023.91 72.159 1022.3 73.2642 1020.83 74.7291C1019.13 76.417 1017.78 78.435 1016.81 80.7269C1015.73 83.2634 1015.19 86.0021 1015.19 88.8672H1003.02C1003.02 84.3521 1003.89 80.0066 1005.61 75.9519C1007.2 72.2039 1009.43 68.8825 1012.25 66.0791C1014.84 63.4985 1017.75 61.5173 1020.91 60.1913C1023.88 58.947 1026.99 58.3159 1030.17 58.3159C1033.34 58.3159 1036.45 58.947 1039.42 60.1913C1042.58 61.5173 1045.49 63.4982 1048.08 66.0791C1050.9 68.8822 1053.13 72.2039 1054.72 75.9516C1056.44 80.0066 1057.31 84.3518 1057.31 88.8669H1045.15Z" fill="#C0E2CA"/>
<path d="M1440 0.740815C1401.34 5.08036 1370.61 28.0375 1363.94 57.3015C1357.61 56.3719 1351.07 55.8849 1344.39 55.8849C1321.01 55.8849 1299.45 61.8382 1282.17 71.8661C1273.89 66.0071 1262.8 62.424 1250.62 62.424C1244.89 62.424 1239.4 63.2198 1234.32 64.6715C1220.76 40.5488 1189.38 23.6524 1152.82 23.6524C1116.4 23.6524 1085.11 40.4165 1071.47 64.3884C1052.85 64.9985 1036.95 73.6215 1029.54 85.8554C1009.41 75.9825 985.456 70.2558 959.753 70.2558C937.808 70.2558 917.141 74.4314 899.037 81.7966C878.347 53.0479 838.313 33.5621 792.317 33.5621C746.341 33.5621 706.322 53.0303 685.625 81.7578C677.049 71.3051 661.833 64.3523 644.487 64.3523C640.978 64.3523 637.557 64.64 634.26 65.1811C617.56 38.8726 582.251 20.7315 541.391 20.7315C511.176 20.7315 483.997 30.6519 465.133 46.4591C458.697 45.2413 451.967 44.5932 445.039 44.5932C420.435 44.5932 398.325 52.7436 383.085 65.7C374.518 59.8862 363.237 56.353 350.874 56.353C330.507 56.353 313.074 65.9384 305.884 79.5222C288.105 71.76 267.514 67.3227 245.567 67.3227C225.063 67.3227 205.743 71.1947 188.794 78.0333C174.734 58.1236 147.172 44.5932 115.47 44.5932C109.734 44.5932 104.136 45.0376 98.727 45.8813C86.1635 19.1336 52.6637 0 13.3095 0C8.788 0 4.344 0.25274 0 0.740256V280H1440L1440 0.740815Z" fill="#FB923C"/>
<path d="M623.296 144.866C623.296 134.685 621.308 124.838 617.388 115.6C613.663 106.824 608.37 98.9806 601.655 92.2879C588.508 79.1846 571.302 71.968 553.206 71.968C535.111 71.968 517.904 79.1843 504.757 92.2879C498.042 98.9803 492.749 106.824 489.024 115.6C485.104 124.838 483.116 134.685 483.116 144.866H460.289C460.289 93.7214 501.89 52.2603 553.206 52.2603C604.523 52.2603 646.123 93.7214 646.123 144.866H623.296Z" fill="#F97316"/>
<path d="M600.47 144.866C600.47 137.005 598.951 129.44 595.955 122.38C593.186 115.855 589.299 110.072 584.402 105.192C579.894 100.699 574.817 97.2498 569.312 94.9411C564.146 92.7745 558.727 91.6758 553.206 91.6758C547.685 91.6758 542.266 92.7745 537.1 94.9411C531.595 97.2498 526.518 100.699 522.01 105.192C517.113 110.072 513.226 115.855 510.457 122.38C507.461 129.44 505.942 137.005 505.942 144.866H483.115C483.115 134.685 485.103 124.838 489.024 115.6C492.748 106.824 498.042 98.9808 504.757 92.2881C517.904 79.1848 535.11 71.9683 553.206 71.9683C571.301 71.9683 588.508 79.1846 601.655 92.2881C608.37 98.9806 613.663 106.824 617.388 115.6C621.308 124.839 623.296 134.685 623.296 144.866L600.47 144.866Z" fill="#FFDAA2"/>
<path d="M579.286 144.866C579.286 139.878 578.336 135.11 576.462 130.693C574.769 126.703 572.415 123.19 569.467 120.251C566.908 117.701 564.105 115.777 561.136 114.532C558.573 113.457 555.905 112.912 553.206 112.912C550.506 112.912 547.838 113.457 545.275 114.532C542.307 115.777 539.504 117.701 536.945 120.251C533.997 123.19 531.643 126.703 529.95 130.693C528.076 135.109 527.125 139.878 527.125 144.866H505.942C505.942 137.005 507.461 129.44 510.457 122.38C513.226 115.855 517.113 110.072 522.01 105.192C526.518 100.699 531.595 97.2495 537.1 94.9408C542.266 92.7743 547.685 91.6755 553.206 91.6755C558.727 91.6755 564.146 92.7743 569.312 94.9408C574.817 97.2495 579.894 100.699 584.402 105.192C589.299 110.072 593.186 115.855 595.955 122.38C598.951 129.44 600.47 137.005 600.47 144.866L579.286 144.866Z" fill="#C0E2CA"/>
<path d="M1440 78.0951C1425.8 84.645 1414.56 94.2363 1408.07 105.595C1397.19 102.053 1385.11 100.081 1372.39 100.081C1334.25 100.081 1301.86 117.809 1290.26 142.441C1279.56 134.411 1264.49 129.411 1247.81 129.411C1243.39 129.411 1239.09 129.764 1234.95 130.428C1221.67 101.169 1183.44 80.0285 1138.35 80.0285C1106.89 80.0285 1078.78 90.3212 1060.14 106.483C1052.69 105.02 1044.85 104.239 1036.76 104.239C1019.25 104.239 1002.93 107.894 989.186 114.201C982.081 112.011 974.257 110.797 966.039 110.797C962.532 110.797 959.098 111.018 955.76 111.442C940.088 89.2959 908.114 74.1271 871.216 74.1271C831.404 74.1271 797.324 91.7873 783.269 116.817C777.673 115.903 771.849 115.419 765.869 115.419C746.799 115.419 729.322 120.328 715.743 128.484C699.844 114.53 675.705 105.626 648.676 105.626C615.32 105.626 586.364 119.186 571.868 139.065C565.577 137.413 558.784 136.511 551.699 136.511C545.546 136.511 539.615 137.192 534.041 138.452C522.024 122.009 498.058 110.797 470.452 110.797C467.514 110.797 464.617 110.924 461.771 111.171C454.121 78.1616 414.252 53 366.218 53C329.041 53 296.756 68.0723 280.513 90.19C276.863 89.8146 273.133 89.6196 269.339 89.6196C245.625 89.6196 224.374 97.2099 210.018 109.199C197.997 104.703 184.338 102.162 169.855 102.162C152.972 102.162 137.209 105.614 123.854 111.591C113.869 86.8327 82.1237 68.7352 44.5047 68.7352C28.1177 68.7352 12.845 72.1692 0 78.0919V280H1440V78.0951H1440Z" fill="#FDBA74"/>
<path d="M192.486 170.669C192.486 158.979 190.227 147.728 185.772 137.229C181.654 127.526 175.873 118.926 168.591 111.668C161.887 104.986 154.337 99.8571 146.151 96.4239C138.468 93.202 130.409 91.5682 122.199 91.5682C113.988 91.5682 105.929 93.202 98.2467 96.4239C90.0602 99.8571 82.5102 104.986 75.8059 111.668C68.5237 118.926 62.7432 127.526 58.625 137.23C54.1697 147.728 51.9107 158.979 51.9107 170.669H17.9645C17.9645 155.528 20.9207 140.885 26.751 127.146C32.2897 114.095 40.1617 102.431 50.1477 92.4782C69.6997 72.9917 95.2877 62.26 122.198 62.26C149.109 62.26 174.697 72.9917 194.248 92.4782C204.234 102.431 212.106 114.095 217.645 127.146C223.476 140.885 226.432 155.528 226.432 170.669H192.486Z" fill="#FFDAA2"/>
<path d="M160.983 170.669C160.983 163.251 159.57 156.16 156.783 149.592C154.265 143.658 150.764 138.434 146.38 134.064C142.574 130.271 138.406 127.409 133.992 125.558C130.18 123.96 126.213 123.149 122.198 123.149C118.184 123.149 114.216 123.96 110.404 125.558C105.989 127.409 101.822 130.271 98.0164 134.064C93.6316 138.434 90.1314 143.659 87.6129 149.593C84.8259 156.16 83.4129 163.251 83.4129 170.669H51.9102C51.9102 158.979 54.1692 147.728 58.6244 137.23C62.7426 127.526 68.5229 118.926 75.8054 111.668C82.5096 104.987 90.0596 99.8575 98.2461 96.4243C105.929 93.2024 113.987 91.5686 122.198 91.5686C130.409 91.5686 138.468 93.2024 146.15 96.4243C154.336 99.8575 161.887 104.987 168.591 111.668C175.873 118.926 181.653 127.526 185.771 137.23C190.227 147.728 192.486 158.979 192.486 170.669L160.983 170.669Z" fill="#C0E2CA"/>
<path d="M122.198 32.9521C69.2064 32.9521 23.1827 62.6826 0.000732422 106.32V170.669H17.9645C17.9645 155.528 20.9207 140.885 26.751 127.147C32.2897 114.095 40.1617 102.431 50.1477 92.4785C69.6997 72.992 95.2877 62.2603 122.198 62.2603C149.109 62.2603 174.697 72.992 194.248 92.4785C204.234 102.431 212.106 114.095 217.645 127.147C223.476 140.885 226.432 155.528 226.432 170.669H260.378C260.378 94.6103 198.513 32.9521 122.198 32.9521Z" fill="#F97316"/>
<path d="M1319.11 184.981C1319.11 173.961 1316.96 163.304 1312.72 153.305C1308.69 143.807 1302.96 135.318 1295.69 128.074C1281.46 113.892 1262.84 106.082 1243.25 106.082C1223.67 106.082 1205.05 113.892 1190.82 128.074C1183.55 135.317 1177.82 143.806 1173.79 153.305C1169.54 163.304 1167.39 173.961 1167.39 184.981H1142.69C1142.69 129.626 1187.71 84.752 1243.25 84.752C1298.79 84.752 1343.82 129.626 1343.82 184.981H1319.11Z" fill="#F97316"/>
<path d="M1294.41 184.981C1294.41 176.472 1292.76 168.284 1289.52 160.644C1286.52 153.582 1282.32 147.323 1277.02 142.04C1272.14 137.177 1266.64 133.445 1260.69 130.946C1255.09 128.601 1249.23 127.412 1243.25 127.412C1237.28 127.412 1231.41 128.601 1225.82 130.946C1219.86 133.445 1214.37 137.178 1209.49 142.04C1204.19 147.323 1199.98 153.582 1196.99 160.644C1193.74 168.284 1192.1 176.472 1192.1 184.981H1167.39C1167.39 173.961 1169.54 163.304 1173.79 153.305C1177.82 143.807 1183.55 135.318 1190.82 128.074C1205.05 113.892 1223.67 106.082 1243.25 106.082C1262.84 106.082 1281.46 113.892 1295.69 128.074C1302.96 135.318 1308.69 143.806 1312.72 153.305C1316.96 163.304 1319.11 173.961 1319.11 184.981H1294.41Z" fill="#FFDAA2"/>
<path d="M1271.48 184.981C1271.48 179.582 1270.45 174.421 1268.42 169.641C1266.59 165.322 1264.04 161.52 1260.85 158.34C1258.08 155.579 1255.05 153.497 1251.84 152.149C1249.06 150.986 1246.17 150.396 1243.25 150.396C1240.33 150.396 1237.44 150.986 1234.67 152.15C1231.46 153.497 1228.42 155.579 1225.65 158.34C1222.46 161.52 1219.92 165.323 1218.08 169.642C1216.05 174.421 1215.03 179.582 1215.03 184.981H1192.1C1192.1 176.473 1193.74 168.285 1196.98 160.644C1199.98 153.582 1204.19 147.323 1209.49 142.041C1214.37 137.178 1219.86 133.445 1225.82 130.946C1231.41 128.601 1237.28 127.412 1243.25 127.412C1249.23 127.412 1255.09 128.601 1260.68 130.946C1266.64 133.445 1272.14 137.178 1277.02 142.041C1282.32 147.323 1286.52 153.582 1289.52 160.644C1292.76 168.285 1294.41 176.473 1294.41 184.981L1271.48 184.981Z" fill="#C0E2CA"/>
<path d="M1440 280V89.9205C1437.02 89.7443 1434.01 89.654 1430.97 89.654C1377.85 89.654 1332.84 117.06 1317.41 154.933C1308.88 149.056 1297.73 145.495 1285.52 145.495C1265.99 145.495 1249.17 154.599 1241.47 167.721C1221.34 157.516 1197.39 151.597 1171.69 151.597C1149.74 151.597 1129.07 155.913 1110.97 163.526C1090.28 133.81 1050.25 113.669 1004.25 113.669C958.275 113.669 918.256 133.792 897.558 163.486C888.983 152.681 873.767 145.495 856.422 145.495C849.927 145.495 843.732 146.505 838.071 148.332C836.49 113.144 799.848 85 754.875 85C719.475 85 689.236 102.439 677.196 127.025C670.722 125.75 663.948 125.071 656.973 125.071C632.369 125.071 610.259 133.496 595.018 146.888C586.451 140.879 575.171 137.227 562.808 137.227C542.44 137.227 525.008 147.134 517.818 161.175C500.039 153.152 479.449 148.565 457.501 148.565C436.997 148.565 417.678 152.568 400.728 159.636C386.668 139.057 359.106 125.071 327.404 125.071C320.429 125.071 313.655 125.75 307.181 127.025C295.141 102.439 264.902 85 229.502 85C184.529 85 147.887 113.144 146.306 148.332C140.645 146.505 134.45 145.495 127.955 145.495C118.751 145.495 110.146 147.518 102.814 151.032C86.959 117.317 47.3307 92.7183 0 89.9211V280H1440Z" fill="#FAFAFA"/>
</svg>
