<svg width="250" height="222" viewBox="0 0 250 222" fill="none" xmlns="http://www.w3.org/2000/svg">
<path d="M110.325 221.325C171.255 221.325 220.65 171.931 220.65 111C220.65 50.0694 171.255 0.675293 110.325 0.675293C49.3941 0.675293 0 50.0694 0 111C0 171.931 49.3941 221.325 110.325 221.325Z" fill="url(#paint0_radial_123_49)"/>
<path d="M194.745 115.85C200.685 76.451 173.563 39.6963 134.164 33.7554C94.7656 27.8145 58.0108 54.9373 52.0699 94.3358C46.1291 133.734 73.2519 170.489 112.65 176.43C152.049 182.371 188.804 155.248 194.745 115.85Z" fill="white"/>
<path d="M123.396 193.575C111.45 193.575 99.8584 191.235 88.9465 186.62C78.409 182.163 68.9445 175.782 60.8152 167.654C52.6873 159.526 46.306 150.06 41.8491 139.522C37.2337 128.61 34.8939 117.019 34.8939 105.073C34.8939 93.1261 37.2337 81.535 41.8491 70.623C46.306 60.0842 52.6873 50.6196 60.8152 42.4931C68.9417 34.3652 78.4077 27.9839 88.9465 23.527C99.857 18.9116 111.448 16.5718 123.396 16.5718C135.344 16.5718 146.934 18.9116 157.846 23.527C168.386 27.9853 177.851 34.3665 185.977 42.4931L184.045 44.4256C176.168 36.5492 166.996 30.3648 156.781 26.0432C146.208 21.5713 134.975 19.3039 123.396 19.3039C111.816 19.3039 100.584 21.5713 90.0112 26.0432C79.7976 30.3634 70.6242 36.5478 62.7477 44.4256C54.8699 52.3034 48.6855 61.4755 44.3666 71.6891C39.8947 82.262 37.6273 93.4952 37.6273 105.074C37.6273 116.653 39.8947 127.885 44.3666 138.459C48.6868 148.673 54.8713 157.845 62.7477 165.722C70.6269 173.6 79.799 179.785 90.0112 184.104C100.584 188.575 111.817 190.843 123.396 190.843C134.975 190.843 146.207 188.575 156.781 184.104C166.995 179.783 176.167 173.599 184.045 165.722C191.921 157.845 198.107 148.671 202.427 138.459C206.899 127.887 209.166 116.654 209.166 105.074V103.707H247.038V106.441H211.89C211.719 117.906 209.385 129.029 204.945 139.524C200.486 150.063 194.105 159.527 185.979 167.655C177.851 175.783 168.386 182.164 157.847 186.621C146.933 191.235 135.343 193.575 123.396 193.575Z" fill="#6366F1"/>
<path d="M237.978 116.253L236.114 114.25L245.987 105.076L236.114 95.898L237.978 93.8958L250 105.076L237.978 116.253Z" fill="#6366F1"/>
<path d="M180.733 86.9144C200.897 86.9144 217.242 70.5686 217.242 50.4051C217.242 30.2415 200.897 13.8958 180.733 13.8958C160.569 13.8958 144.224 30.2415 144.224 50.4051C144.224 70.5686 160.569 86.9144 180.733 86.9144Z" fill="url(#paint1_radial_123_49)"/>
<path d="M208.617 52.2553C210.717 39.2388 201.868 26.9842 188.851 24.8838C175.835 22.7834 163.58 31.6326 161.48 44.649C159.379 57.6655 168.229 69.9201 181.245 72.0205C194.262 74.1209 206.516 65.2717 208.617 52.2553Z" fill="#6366F1"/>
<path d="M185.059 74.3676C170.764 74.3676 159.135 62.7381 159.135 48.4436C159.135 34.149 170.764 22.5195 185.059 22.5195C199.353 22.5195 210.983 34.149 210.983 48.4436C210.983 62.7381 199.353 74.3676 185.059 74.3676ZM185.059 26.6197C173.025 26.6197 163.235 36.4109 163.235 48.4436C163.235 60.4762 173.025 70.2674 185.059 70.2674C197.093 70.2674 206.883 60.4762 206.883 48.4436C206.883 36.4109 197.091 26.6197 185.059 26.6197Z" fill="white"/>
<path d="M183.527 46.0039V48.875C183.527 50.1875 183.395 51.3086 183.129 52.2383C182.863 53.168 182.48 53.9297 181.98 54.5234C181.48 55.1094 180.883 55.543 180.188 55.8242C179.492 56.0977 178.719 56.2344 177.867 56.2344C177.188 56.2344 176.555 56.1484 175.969 55.9766C175.383 55.7969 174.855 55.5234 174.387 55.1562C173.926 54.7812 173.527 54.3047 173.191 53.7266C172.863 53.1484 172.609 52.457 172.43 51.6523C172.258 50.8477 172.172 49.9219 172.172 48.875V46.0039C172.172 44.6914 172.305 43.5742 172.57 42.6523C172.844 41.7305 173.23 40.9766 173.73 40.3906C174.23 39.8047 174.828 39.3789 175.523 39.1133C176.219 38.8398 176.992 38.7031 177.844 38.7031C178.531 38.7031 179.164 38.7891 179.742 38.9609C180.328 39.1328 180.852 39.4023 181.312 39.7695C181.781 40.1289 182.18 40.5977 182.508 41.1758C182.836 41.7461 183.086 42.4336 183.258 43.2383C183.438 44.0352 183.527 44.957 183.527 46.0039ZM180.434 49.2969V45.5703C180.434 44.9141 180.395 44.3438 180.316 43.8594C180.246 43.3672 180.141 42.9492 180 42.6055C179.859 42.2617 179.684 41.9844 179.473 41.7734C179.262 41.5547 179.02 41.3945 178.746 41.293C178.473 41.1914 178.172 41.1406 177.844 41.1406C177.438 41.1406 177.074 41.2227 176.754 41.3867C176.434 41.543 176.164 41.793 175.945 42.1367C175.727 42.4805 175.559 42.9375 175.441 43.5078C175.332 44.0703 175.277 44.7578 175.277 45.5703V49.2969C175.277 49.9531 175.312 50.5273 175.383 51.0195C175.461 51.5117 175.57 51.9336 175.711 52.2852C175.859 52.6367 176.035 52.9258 176.238 53.1523C176.449 53.3711 176.691 53.5352 176.965 53.6445C177.238 53.7461 177.539 53.7969 177.867 53.7969C178.281 53.7969 178.645 53.7148 178.957 53.5508C179.277 53.3867 179.547 53.1289 179.766 52.7773C179.984 52.418 180.148 51.9531 180.258 51.3828C180.375 50.8047 180.434 50.1094 180.434 49.2969ZM197.496 53.5625V56H185.941V53.9141L191.484 47.9258C192.062 47.2695 192.52 46.6992 192.855 46.2148C193.191 45.7305 193.43 45.293 193.57 44.9023C193.719 44.5039 193.793 44.125 193.793 43.7656C193.793 43.2422 193.699 42.7852 193.512 42.3945C193.324 41.9961 193.051 41.6875 192.691 41.4688C192.34 41.25 191.906 41.1406 191.391 41.1406C190.82 41.1406 190.332 41.2734 189.926 41.5391C189.527 41.7969 189.223 42.1562 189.012 42.6172C188.809 43.0781 188.707 43.6055 188.707 44.1992H185.602C185.602 43.1914 185.836 42.2734 186.305 41.4453C186.773 40.6094 187.445 39.9414 188.32 39.4414C189.195 38.9414 190.234 38.6914 191.438 38.6914C192.609 38.6914 193.602 38.8867 194.414 39.2773C195.227 39.6602 195.844 40.207 196.266 40.918C196.688 41.6289 196.898 42.4766 196.898 43.4609C196.898 44.0078 196.809 44.5469 196.629 45.0781C196.449 45.6094 196.195 46.1367 195.867 46.6602C195.547 47.1758 195.164 47.6992 194.719 48.2305C194.273 48.7617 193.777 49.3047 193.23 49.8594L189.902 53.5625H197.496Z" fill="white"/>
<path d="M109.5 78H138L133.5 93H114L109.5 78ZM109.5 78L108.375 74.25" stroke="#6366F1" stroke-width="1.5" stroke-linecap="round" stroke-linejoin="round"/>
<path d="M119.988 85.5H122.988M125.988 85.5H122.988M122.988 85.5V82.5M122.988 85.5V88.5" stroke="#6366F1" stroke-width="1.5" stroke-linecap="round" stroke-linejoin="round"/>
<path d="M121.5 98.25C121.5 99.4926 120.493 100.5 119.25 100.5C118.007 100.5 117 99.4926 117 98.25" stroke="#6366F1" stroke-width="1.5" stroke-linecap="round" stroke-linejoin="round"/>
<path d="M130.5 98.25C130.5 99.4926 129.493 100.5 128.25 100.5C127.007 100.5 126 99.4926 126 98.25" stroke="#6366F1" stroke-width="1.5" stroke-linecap="round" stroke-linejoin="round"/>
<path d="M80.1914 126.777H75.7969V124.246H80.1914C80.9102 124.246 81.4922 124.129 81.9375 123.895C82.3906 123.652 82.7227 123.324 82.9336 122.91C83.1445 122.488 83.25 122.008 83.25 121.469C83.25 120.945 83.1445 120.457 82.9336 120.004C82.7227 119.551 82.3906 119.184 81.9375 118.902C81.4922 118.621 80.9102 118.48 80.1914 118.48H76.8516V133H73.6289V115.938H80.1914C81.5195 115.938 82.6523 116.176 83.5898 116.652C84.5352 117.121 85.2539 117.773 85.7461 118.609C86.2461 119.438 86.4961 120.383 86.4961 121.445C86.4961 122.547 86.2461 123.496 85.7461 124.293C85.2539 125.09 84.5352 125.703 83.5898 126.133C82.6523 126.562 81.5195 126.777 80.1914 126.777ZM96.3398 129.988V120.32H99.457V133H96.5273L96.3398 129.988ZM96.7383 127.363L97.6992 127.34C97.6992 128.191 97.6055 128.977 97.418 129.695C97.2305 130.414 96.9375 131.039 96.5391 131.57C96.1484 132.094 95.6523 132.504 95.0508 132.801C94.4492 133.09 93.7383 133.234 92.918 133.234C92.293 133.234 91.7227 133.148 91.207 132.977C90.6914 132.797 90.2461 132.52 89.8711 132.145C89.5039 131.762 89.2188 131.273 89.0156 130.68C88.8125 130.078 88.7109 129.355 88.7109 128.512V120.32H91.8047V128.535C91.8047 128.957 91.8516 129.309 91.9453 129.59C92.0469 129.871 92.1836 130.102 92.3555 130.281C92.5352 130.453 92.7422 130.578 92.9766 130.656C93.2188 130.727 93.4766 130.762 93.75 130.762C94.5 130.762 95.0898 130.613 95.5195 130.316C95.957 130.012 96.2695 129.605 96.457 129.098C96.6445 128.582 96.7383 128.004 96.7383 127.363ZM105.293 122.91V133H102.199V120.32H105.129L105.293 122.91ZM109.148 120.238L109.102 123.121C108.93 123.09 108.734 123.066 108.516 123.051C108.305 123.035 108.105 123.027 107.918 123.027C107.441 123.027 107.023 123.094 106.664 123.227C106.305 123.352 106.004 123.535 105.762 123.777C105.527 124.02 105.348 124.316 105.223 124.668C105.098 125.012 105.027 125.402 105.012 125.84L104.344 125.758C104.344 124.953 104.426 124.207 104.59 123.52C104.754 122.832 104.992 122.23 105.305 121.715C105.617 121.199 106.008 120.801 106.477 120.52C106.953 120.23 107.5 120.086 108.117 120.086C108.289 120.086 108.473 120.102 108.668 120.133C108.871 120.156 109.031 120.191 109.148 120.238ZM115.816 130.797C116.254 130.797 116.645 130.711 116.988 130.539C117.332 130.367 117.605 130.125 117.809 129.812C118.02 129.5 118.133 129.137 118.148 128.723H121.066C121.051 129.582 120.809 130.352 120.34 131.031C119.871 131.711 119.246 132.25 118.465 132.648C117.691 133.039 116.824 133.234 115.863 133.234C114.887 133.234 114.035 133.07 113.309 132.742C112.582 132.414 111.977 131.957 111.492 131.371C111.016 130.785 110.656 130.105 110.414 129.332C110.18 128.559 110.062 127.73 110.062 126.848V126.473C110.062 125.59 110.18 124.762 110.414 123.988C110.656 123.215 111.016 122.535 111.492 121.949C111.977 121.363 112.582 120.906 113.309 120.578C114.035 120.25 114.883 120.086 115.852 120.086C116.875 120.086 117.773 120.285 118.547 120.684C119.328 121.082 119.938 121.645 120.375 122.371C120.82 123.098 121.051 123.953 121.066 124.938H118.148C118.133 124.484 118.031 124.078 117.844 123.719C117.656 123.359 117.391 123.07 117.047 122.852C116.703 122.633 116.285 122.523 115.793 122.523C115.27 122.523 114.832 122.633 114.48 122.852C114.137 123.07 113.867 123.371 113.672 123.754C113.484 124.129 113.352 124.551 113.273 125.02C113.203 125.48 113.168 125.965 113.168 126.473V126.848C113.168 127.363 113.203 127.855 113.273 128.324C113.352 128.793 113.484 129.215 113.672 129.59C113.867 129.957 114.137 130.25 114.48 130.469C114.832 130.688 115.277 130.797 115.816 130.797ZM126.164 115V133H123.059V115H126.164ZM125.672 126.203H124.758C124.758 125.32 124.875 124.508 125.109 123.766C125.344 123.023 125.676 122.379 126.105 121.832C126.535 121.277 127.047 120.848 127.641 120.543C128.242 120.238 128.906 120.086 129.633 120.086C130.258 120.086 130.824 120.176 131.332 120.355C131.848 120.527 132.289 120.805 132.656 121.188C133.023 121.57 133.305 122.07 133.5 122.688C133.703 123.297 133.805 124.039 133.805 124.914V133H130.688V124.891C130.688 124.305 130.602 123.844 130.43 123.508C130.258 123.164 130.012 122.918 129.691 122.77C129.379 122.621 128.992 122.547 128.531 122.547C128.031 122.547 127.602 122.645 127.242 122.84C126.883 123.027 126.586 123.289 126.352 123.625C126.125 123.961 125.953 124.348 125.836 124.785C125.727 125.223 125.672 125.695 125.672 126.203ZM143.52 130.305V124.457C143.52 124.027 143.445 123.656 143.297 123.344C143.148 123.031 142.922 122.789 142.617 122.617C142.312 122.445 141.926 122.359 141.457 122.359C141.043 122.359 140.68 122.43 140.367 122.57C140.062 122.711 139.828 122.91 139.664 123.168C139.5 123.418 139.418 123.707 139.418 124.035H136.312C136.312 123.512 136.438 123.016 136.688 122.547C136.938 122.07 137.293 121.648 137.754 121.281C138.223 120.906 138.781 120.613 139.43 120.402C140.086 120.191 140.82 120.086 141.633 120.086C142.594 120.086 143.449 120.25 144.199 120.578C144.957 120.898 145.551 121.383 145.98 122.031C146.418 122.68 146.637 123.496 146.637 124.48V130.012C146.637 130.645 146.676 131.188 146.754 131.641C146.84 132.086 146.965 132.473 147.129 132.801V133H143.977C143.828 132.68 143.715 132.273 143.637 131.781C143.559 131.281 143.52 130.789 143.52 130.305ZM143.953 125.277L143.977 127.117H142.02C141.535 127.117 141.109 127.168 140.742 127.27C140.375 127.363 140.074 127.504 139.84 127.691C139.605 127.871 139.43 128.09 139.312 128.348C139.195 128.598 139.137 128.883 139.137 129.203C139.137 129.516 139.207 129.797 139.348 130.047C139.496 130.297 139.707 130.496 139.98 130.645C140.262 130.785 140.59 130.855 140.965 130.855C141.512 130.855 141.988 130.746 142.395 130.527C142.801 130.301 143.117 130.027 143.344 129.707C143.57 129.387 143.691 129.082 143.707 128.793L144.598 130.129C144.488 130.449 144.324 130.789 144.105 131.148C143.887 131.508 143.605 131.844 143.262 132.156C142.918 132.469 142.504 132.727 142.02 132.93C141.535 133.133 140.973 133.234 140.332 133.234C139.512 133.234 138.777 133.07 138.129 132.742C137.48 132.414 136.969 131.965 136.594 131.395C136.219 130.824 136.031 130.176 136.031 129.449C136.031 128.777 136.156 128.184 136.406 127.668C136.656 127.152 137.027 126.719 137.52 126.367C138.012 126.008 138.621 125.738 139.348 125.559C140.082 125.371 140.922 125.277 141.867 125.277H143.953ZM156.398 129.531C156.398 129.266 156.328 129.027 156.188 128.816C156.047 128.605 155.781 128.414 155.391 128.242C155.008 128.062 154.445 127.895 153.703 127.738C153.047 127.598 152.441 127.422 151.887 127.211C151.332 127 150.855 126.746 150.457 126.449C150.059 126.145 149.746 125.789 149.52 125.383C149.301 124.969 149.191 124.492 149.191 123.953C149.191 123.43 149.305 122.938 149.531 122.477C149.758 122.008 150.086 121.598 150.516 121.246C150.945 120.887 151.469 120.605 152.086 120.402C152.703 120.191 153.398 120.086 154.172 120.086C155.25 120.086 156.176 120.262 156.949 120.613C157.73 120.965 158.328 121.449 158.742 122.066C159.156 122.676 159.363 123.363 159.363 124.129H156.27C156.27 123.793 156.191 123.488 156.035 123.215C155.887 122.941 155.656 122.723 155.344 122.559C155.031 122.387 154.637 122.301 154.16 122.301C153.73 122.301 153.367 122.371 153.07 122.512C152.781 122.652 152.562 122.836 152.414 123.062C152.266 123.289 152.191 123.539 152.191 123.812C152.191 124.016 152.23 124.199 152.309 124.363C152.395 124.52 152.531 124.664 152.719 124.797C152.906 124.93 153.16 125.051 153.48 125.16C153.809 125.27 154.211 125.375 154.688 125.477C155.633 125.664 156.457 125.914 157.16 126.227C157.871 126.531 158.426 126.938 158.824 127.445C159.223 127.953 159.422 128.602 159.422 129.391C159.422 129.953 159.301 130.469 159.059 130.938C158.816 131.398 158.465 131.801 158.004 132.145C157.543 132.488 156.992 132.758 156.352 132.953C155.711 133.141 154.988 133.234 154.184 133.234C153.02 133.234 152.035 133.027 151.23 132.613C150.426 132.191 149.816 131.66 149.402 131.02C148.988 130.371 148.781 129.699 148.781 129.004H151.746C151.77 129.496 151.902 129.891 152.145 130.188C152.387 130.484 152.691 130.699 153.059 130.832C153.434 130.957 153.828 131.02 154.242 131.02C154.711 131.02 155.105 130.957 155.426 130.832C155.746 130.699 155.988 130.523 156.152 130.305C156.316 130.078 156.398 129.82 156.398 129.531ZM167.473 133.234C166.512 133.234 165.648 133.078 164.883 132.766C164.117 132.453 163.465 132.02 162.926 131.465C162.395 130.902 161.984 130.25 161.695 129.508C161.414 128.758 161.273 127.953 161.273 127.094V126.625C161.273 125.648 161.414 124.762 161.695 123.965C161.977 123.16 162.375 122.469 162.891 121.891C163.406 121.312 164.023 120.867 164.742 120.555C165.461 120.242 166.254 120.086 167.121 120.086C168.02 120.086 168.812 120.238 169.5 120.543C170.188 120.84 170.762 121.262 171.223 121.809C171.684 122.355 172.031 123.012 172.266 123.777C172.5 124.535 172.617 125.375 172.617 126.297V127.598H162.68V125.465H169.57V125.23C169.555 124.738 169.461 124.289 169.289 123.883C169.117 123.469 168.852 123.141 168.492 122.898C168.133 122.648 167.668 122.523 167.098 122.523C166.637 122.523 166.234 122.625 165.891 122.828C165.555 123.023 165.273 123.305 165.047 123.672C164.828 124.031 164.664 124.461 164.555 124.961C164.445 125.461 164.391 126.016 164.391 126.625V127.094C164.391 127.625 164.461 128.117 164.602 128.57C164.75 129.023 164.965 129.418 165.246 129.754C165.535 130.082 165.879 130.34 166.277 130.527C166.684 130.707 167.145 130.797 167.66 130.797C168.309 130.797 168.895 130.672 169.418 130.422C169.949 130.164 170.41 129.785 170.801 129.285L172.359 130.902C172.094 131.293 171.734 131.668 171.281 132.027C170.836 132.387 170.297 132.68 169.664 132.906C169.031 133.125 168.301 133.234 167.473 133.234Z" fill="#6366F1"/>
<defs>
<radialGradient id="paint0_radial_123_49" cx="0" cy="0" r="1" gradientUnits="userSpaceOnUse" gradientTransform="translate(110.325 111) scale(110.325 110.325)">
<stop offset="0.1782"/>
<stop offset="0.2434" stop-color="#242424"/>
<stop offset="0.3593" stop-color="#5D5D5D"/>
<stop offset="0.4755" stop-color="#8F8F8F"/>
<stop offset="0.5892" stop-color="#B7B7B7"/>
<stop offset="0.7001" stop-color="#D6D6D6"/>
<stop offset="0.8073" stop-color="#EDEDED"/>
<stop offset="0.9091" stop-color="#F5F5F5"/>
<stop offset="1" stop-color="#F5F5F5"/>
</radialGradient>
<radialGradient id="paint1_radial_123_49" cx="0" cy="0" r="1" gradientUnits="userSpaceOnUse" gradientTransform="translate(180.733 50.4051) scale(36.5086 36.5086)">
<stop offset="0.1782"/>
<stop offset="0.2434" stop-color="#242424"/>
<stop offset="0.3593" stop-color="#5D5D5D"/>
<stop offset="0.4755" stop-color="#8F8F8F"/>
<stop offset="0.5892" stop-color="#B7B7B7"/>
<stop offset="0.7001" stop-color="#D6D6D6"/>
<stop offset="0.8073" stop-color="#EDEDED"/>
<stop offset="0.9091" stop-color="#FAFAFA"/>
<stop offset="1" stop-color="white"/>
</radialGradient>
</defs>
</svg>
