<svg width="250" height="250" viewBox="0 0 250 250" fill="none" xmlns="http://www.w3.org/2000/svg">
<path d="M125 250C194.036 250 250 194.036 250 125C250 55.9644 194.036 0 125 0C55.9644 0 0 55.9644 0 125C0 194.036 55.9644 250 125 250Z" fill="url(#paint0_radial_123_48)"/>
<path d="M220.662 130.503C227.393 85.8633 196.662 44.2194 152.023 37.4883C107.384 30.7572 65.7399 61.4878 59.0088 106.127C52.2777 150.766 83.0083 192.41 127.648 199.141C172.287 205.872 213.931 175.142 220.662 130.503Z" fill="#FAFAFA"/>
<path d="M139.812 218.559C126.276 218.559 113.143 215.908 100.78 210.678C88.8404 205.629 78.1168 198.399 68.9062 189.19C59.6971 179.98 52.4671 169.255 47.4173 157.316C42.188 144.953 39.5369 131.82 39.5369 118.284C39.5369 104.748 42.188 91.6154 47.4173 79.252C52.4671 67.3114 59.6971 56.5878 68.9062 47.3803C78.1137 38.1712 88.8388 30.9412 100.78 25.8914C113.141 20.6621 126.274 18.011 139.812 18.011C153.349 18.011 166.48 20.6621 178.844 25.8914C190.786 30.9427 201.509 38.1728 210.715 47.3803L208.526 49.5699C199.602 40.6458 189.21 33.6387 177.636 28.7423C165.656 23.6755 152.929 21.1065 139.81 21.1065C126.689 21.1065 113.964 23.6755 101.984 28.7423C90.4121 33.6371 80.0184 40.6442 71.0943 49.5699C62.1686 58.4956 55.1615 68.8878 50.2682 80.4599C45.2014 92.4393 42.6324 105.167 42.6324 118.286C42.6324 131.405 45.2014 144.131 50.2682 156.111C55.163 167.684 62.1701 178.076 71.0943 187.001C80.0215 195.927 90.4137 202.934 101.984 207.828C113.964 212.894 126.691 215.463 139.81 215.463C152.929 215.463 165.655 212.894 177.636 207.828C189.208 202.933 199.6 195.926 208.526 187.001C217.452 178.076 224.459 167.682 229.352 156.111C234.419 144.134 236.988 131.406 236.988 118.286H240.085C240.085 131.824 237.434 144.956 232.204 157.318C227.155 169.257 219.925 179.982 210.715 189.191C201.506 198.4 190.784 205.63 178.844 210.68C166.479 215.908 153.346 218.559 139.812 218.559Z" fill="#F97316"/>
<path d="M204.774 97.7105C227.619 97.7105 246.139 79.1904 246.139 56.3447C246.139 33.4991 227.619 14.979 204.774 14.979C181.928 14.979 163.408 33.4991 163.408 56.3447C163.408 79.1904 181.928 97.7105 204.774 97.7105Z" fill="url(#paint1_radial_123_48)"/>
<path d="M236.363 58.4487C238.743 43.7008 228.716 29.8161 213.968 27.4363C199.221 25.0565 185.336 35.0828 182.956 49.8307C180.576 64.5786 190.603 78.4633 205.35 80.8431C220.098 83.2229 233.983 73.1966 236.363 58.4487Z" fill="#F97316"/>
<path d="M209.675 83.4953C193.479 83.4953 180.302 70.3189 180.302 54.1229C180.302 37.9269 193.479 24.7505 209.675 24.7505C225.871 24.7505 239.047 37.9269 239.047 54.1229C239.047 70.3189 225.871 83.4953 209.675 83.4953ZM209.675 29.3961C196.04 29.3961 184.948 40.4897 184.948 54.1229C184.948 67.7561 196.042 78.8497 209.675 78.8497C223.31 78.8497 234.402 67.7561 234.402 54.1229C234.402 40.4897 223.31 29.3961 209.675 29.3961Z" fill="#FAFAFA"/>
<path d="M208.527 54.0039V56.875C208.527 58.1875 208.395 59.3086 208.129 60.2383C207.863 61.168 207.48 61.9297 206.98 62.5234C206.48 63.1094 205.883 63.543 205.188 63.8242C204.492 64.0977 203.719 64.2344 202.867 64.2344C202.188 64.2344 201.555 64.1484 200.969 63.9766C200.383 63.7969 199.855 63.5234 199.387 63.1562C198.926 62.7812 198.527 62.3047 198.191 61.7266C197.863 61.1484 197.609 60.457 197.43 59.6523C197.258 58.8477 197.172 57.9219 197.172 56.875V54.0039C197.172 52.6914 197.305 51.5742 197.57 50.6523C197.844 49.7305 198.23 48.9766 198.73 48.3906C199.23 47.8047 199.828 47.3789 200.523 47.1133C201.219 46.8398 201.992 46.7031 202.844 46.7031C203.531 46.7031 204.164 46.7891 204.742 46.9609C205.328 47.1328 205.852 47.4023 206.312 47.7695C206.781 48.1289 207.18 48.5977 207.508 49.1758C207.836 49.7461 208.086 50.4336 208.258 51.2383C208.438 52.0352 208.527 52.957 208.527 54.0039ZM205.434 57.2969V53.5703C205.434 52.9141 205.395 52.3438 205.316 51.8594C205.246 51.3672 205.141 50.9492 205 50.6055C204.859 50.2617 204.684 49.9844 204.473 49.7734C204.262 49.5547 204.02 49.3945 203.746 49.293C203.473 49.1914 203.172 49.1406 202.844 49.1406C202.438 49.1406 202.074 49.2227 201.754 49.3867C201.434 49.543 201.164 49.793 200.945 50.1367C200.727 50.4805 200.559 50.9375 200.441 51.5078C200.332 52.0703 200.277 52.7578 200.277 53.5703V57.2969C200.277 57.9531 200.312 58.5273 200.383 59.0195C200.461 59.5117 200.57 59.9336 200.711 60.2852C200.859 60.6367 201.035 60.9258 201.238 61.1523C201.449 61.3711 201.691 61.5352 201.965 61.6445C202.238 61.7461 202.539 61.7969 202.867 61.7969C203.281 61.7969 203.645 61.7148 203.957 61.5508C204.277 61.3867 204.547 61.1289 204.766 60.7773C204.984 60.418 205.148 59.9531 205.258 59.3828C205.375 58.8047 205.434 58.1094 205.434 57.2969ZM222.789 57.7773V60.2148H210.496L210.367 58.3398L217.598 46.9375H220.07L217.398 51.4727L213.52 57.7773H222.789ZM220.762 46.9375V64H217.656V46.9375H220.762Z" fill="#FAFAFA"/>
<path d="M147.857 111H152.4C152.731 111 153 110.731 153 110.4V98.5C153 96.2909 151.209 94.5 149 94.5H130C127.791 94.5 126 96.2909 126 98.5V110.4C126 110.731 126.269 111 126.6 111H131.143" stroke="#F97316" stroke-width="1.5"/>
<path d="M133.5 94.5V89.4C133.5 88.9029 133.903 88.5 134.4 88.5H144.6C145.097 88.5 145.5 88.9029 145.5 89.4V94.5" stroke="#F97316" stroke-width="1.5"/>
<path d="M130.647 114.473L131.143 111L131.89 105.773C131.953 105.329 132.333 105 132.781 105H146.219C146.667 105 147.047 105.329 147.11 105.773L147.857 111L148.353 114.473C148.431 115.015 148.01 115.5 147.462 115.5H131.538C130.99 115.5 130.569 115.015 130.647 114.473Z" stroke="#F97316" stroke-width="1.5"/>
<path d="M147 99.015L147.015 98.9983" stroke="#F97316" stroke-width="1.5" stroke-linecap="round" stroke-linejoin="round"/>
<path d="M121.691 141.777H117.297V139.246H121.691C122.41 139.246 122.992 139.129 123.438 138.895C123.891 138.652 124.223 138.324 124.434 137.91C124.645 137.488 124.75 137.008 124.75 136.469C124.75 135.945 124.645 135.457 124.434 135.004C124.223 134.551 123.891 134.184 123.438 133.902C122.992 133.621 122.41 133.48 121.691 133.48H118.352V148H115.129V130.938H121.691C123.02 130.938 124.152 131.176 125.09 131.652C126.035 132.121 126.754 132.773 127.246 133.609C127.746 134.438 127.996 135.383 127.996 136.445C127.996 137.547 127.746 138.496 127.246 139.293C126.754 140.09 126.035 140.703 125.09 141.133C124.152 141.562 123.02 141.777 121.691 141.777ZM133.387 137.91V148H130.293V135.32H133.223L133.387 137.91ZM137.242 135.238L137.195 138.121C137.023 138.09 136.828 138.066 136.609 138.051C136.398 138.035 136.199 138.027 136.012 138.027C135.535 138.027 135.117 138.094 134.758 138.227C134.398 138.352 134.098 138.535 133.855 138.777C133.621 139.02 133.441 139.316 133.316 139.668C133.191 140.012 133.121 140.402 133.105 140.84L132.438 140.758C132.438 139.953 132.52 139.207 132.684 138.52C132.848 137.832 133.086 137.23 133.398 136.715C133.711 136.199 134.102 135.801 134.57 135.52C135.047 135.23 135.594 135.086 136.211 135.086C136.383 135.086 136.566 135.102 136.762 135.133C136.965 135.156 137.125 135.191 137.242 135.238ZM142.223 135.32V148H139.117V135.32H142.223ZM138.906 132.004C138.906 131.543 139.062 131.16 139.375 130.855C139.695 130.551 140.125 130.398 140.664 130.398C141.203 130.398 141.629 130.551 141.941 130.855C142.262 131.16 142.422 131.543 142.422 132.004C142.422 132.457 142.262 132.836 141.941 133.141C141.629 133.445 141.203 133.598 140.664 133.598C140.125 133.598 139.695 133.445 139.375 133.141C139.062 132.836 138.906 132.457 138.906 132.004ZM148.211 138.027V148H145.117V135.32H148.023L148.211 138.027ZM147.719 141.203H146.805C146.812 140.281 146.938 139.445 147.18 138.695C147.422 137.945 147.762 137.301 148.199 136.762C148.645 136.223 149.172 135.809 149.781 135.52C150.391 135.23 151.07 135.086 151.82 135.086C152.43 135.086 152.98 135.172 153.473 135.344C153.965 135.516 154.387 135.789 154.738 136.164C155.098 136.539 155.371 137.031 155.559 137.641C155.754 138.242 155.852 138.984 155.852 139.867V148H152.734V139.844C152.734 139.266 152.648 138.809 152.477 138.473C152.312 138.137 152.07 137.898 151.75 137.758C151.438 137.617 151.051 137.547 150.59 137.547C150.113 137.547 149.695 137.645 149.336 137.84C148.984 138.027 148.688 138.289 148.445 138.625C148.211 138.961 148.031 139.348 147.906 139.785C147.781 140.223 147.719 140.695 147.719 141.203ZM164.582 135.32V137.547H157.316V135.32H164.582ZM159.262 132.203H162.367V144.344C162.367 144.719 162.418 145.008 162.52 145.211C162.621 145.414 162.773 145.551 162.977 145.621C163.18 145.691 163.422 145.727 163.703 145.727C163.906 145.727 164.094 145.715 164.266 145.691C164.438 145.668 164.582 145.645 164.699 145.621L164.711 147.941C164.453 148.027 164.16 148.098 163.832 148.152C163.512 148.207 163.148 148.234 162.742 148.234C162.047 148.234 161.438 148.117 160.914 147.883C160.391 147.641 159.984 147.254 159.695 146.723C159.406 146.184 159.262 145.473 159.262 144.59V132.203Z" fill="#F97316"/>
<defs>
<radialGradient id="paint0_radial_123_48" cx="0" cy="0" r="1" gradientUnits="userSpaceOnUse" gradientTransform="translate(125.001 124.999) scale(125.001)">
<stop offset="0.1782"/>
<stop offset="0.2434" stop-color="#242424"/>
<stop offset="0.3593" stop-color="#5D5D5D"/>
<stop offset="0.4755" stop-color="#8F8F8F"/>
<stop offset="0.5892" stop-color="#B7B7B7"/>
<stop offset="0.7001" stop-color="#D6D6D6"/>
<stop offset="0.8073" stop-color="#EDEDED"/>
<stop offset="0.9091" stop-color="#F5F5F5"/>
<stop offset="1" stop-color="#F5F5F5"/>
</radialGradient>
<radialGradient id="paint1_radial_123_48" cx="0" cy="0" r="1" gradientUnits="userSpaceOnUse" gradientTransform="translate(204.774 56.3447) scale(41.3651 41.3651)">
<stop offset="0.1782" stop-color="#FAFAFA"/>
<stop offset="0.2434" stop-color="#242424"/>
<stop offset="0.3593" stop-color="#5D5D5D"/>
<stop offset="0.4755" stop-color="#8F8F8F"/>
<stop offset="0.5892" stop-color="#B7B7B7"/>
<stop offset="0.7001" stop-color="#D6D6D6"/>
<stop offset="0.8073" stop-color="#EDEDED"/>
<stop offset="0.9091" stop-color="#FAFAFA"/>
<stop offset="1" stop-color="#FAFAFA"/>
</radialGradient>
</defs>
</svg>
