<svg width="250" height="222" viewBox="0 0 250 222" fill="none" xmlns="http://www.w3.org/2000/svg">
<path d="M110.325 221.325C171.255 221.325 220.65 171.931 220.65 111C220.65 50.0694 171.255 0.675293 110.325 0.675293C49.3941 0.675293 0 50.0694 0 111C0 171.931 49.3941 221.325 110.325 221.325Z" fill="url(#paint0_radial_123_146)"/>
<path d="M194.745 115.85C200.685 76.451 173.563 39.6963 134.164 33.7554C94.7656 27.8145 58.0108 54.9373 52.0699 94.3358C46.1291 133.734 73.2519 170.489 112.65 176.43C152.049 182.371 188.804 155.248 194.745 115.85Z" fill="white"/>
<path d="M123.396 193.575C111.45 193.575 99.8584 191.235 88.9465 186.62C78.409 182.163 68.9445 175.782 60.8152 167.654C52.6873 159.526 46.306 150.06 41.8491 139.522C37.2337 128.61 34.8939 117.019 34.8939 105.073C34.8939 93.1261 37.2337 81.535 41.8491 70.623C46.306 60.0842 52.6873 50.6196 60.8152 42.4931C68.9417 34.3652 78.4077 27.9839 88.9465 23.527C99.857 18.9116 111.448 16.5718 123.396 16.5718C135.344 16.5718 146.934 18.9116 157.846 23.527C168.386 27.9853 177.851 34.3665 185.977 42.4931L184.045 44.4256C176.168 36.5492 166.996 30.3648 156.781 26.0432C146.208 21.5713 134.975 19.3039 123.396 19.3039C111.816 19.3039 100.584 21.5713 90.0112 26.0432C79.7976 30.3634 70.6242 36.5478 62.7477 44.4256C54.8699 52.3034 48.6855 61.4755 44.3666 71.6891C39.8947 82.262 37.6273 93.4952 37.6273 105.074C37.6273 116.653 39.8947 127.885 44.3666 138.459C48.6868 148.673 54.8713 157.845 62.7477 165.722C70.6269 173.6 79.799 179.785 90.0112 184.104C100.584 188.575 111.817 190.843 123.396 190.843C134.975 190.843 146.207 188.575 156.781 184.104C166.995 179.783 176.167 173.599 184.045 165.722C191.921 157.845 198.107 148.671 202.427 138.459C206.899 127.887 209.166 116.654 209.166 105.074V103.707H247.038V106.441H211.89C211.719 117.906 209.385 129.029 204.945 139.524C200.486 150.063 194.105 159.527 185.979 167.655C177.851 175.783 168.386 182.164 157.847 186.621C146.933 191.235 135.343 193.575 123.396 193.575Z" fill="#84CC16"/>
<path d="M237.978 116.253L236.114 114.25L245.987 105.076L236.114 95.898L237.978 93.8958L250 105.076L237.978 116.253Z" fill="#84CC16"/>
<path d="M180.733 86.9144C200.897 86.9144 217.242 70.5686 217.242 50.4051C217.242 30.2415 200.897 13.8958 180.733 13.8958C160.569 13.8958 144.224 30.2415 144.224 50.4051C144.224 70.5686 160.569 86.9144 180.733 86.9144Z" fill="url(#paint1_radial_123_146)"/>
<path d="M208.617 52.2553C210.717 39.2388 201.868 26.9842 188.851 24.8838C175.835 22.7834 163.58 31.6326 161.48 44.649C159.379 57.6655 168.229 69.9201 181.245 72.0205C194.262 74.1209 206.516 65.2717 208.617 52.2553Z" fill="#84CC16"/>
<path d="M185.059 74.3676C170.764 74.3676 159.135 62.7381 159.135 48.4436C159.135 34.149 170.764 22.5195 185.059 22.5195C199.353 22.5195 210.983 34.149 210.983 48.4436C210.983 62.7381 199.353 74.3676 185.059 74.3676ZM185.059 26.6197C173.025 26.6197 163.235 36.4109 163.235 48.4436C163.235 60.4762 173.025 70.2674 185.059 70.2674C197.093 70.2674 206.883 60.4762 206.883 48.4436C206.883 36.4109 197.091 26.6197 185.059 26.6197Z" fill="white"/>
<path d="M183.527 46.0039V48.875C183.527 50.1875 183.395 51.3086 183.129 52.2383C182.863 53.168 182.48 53.9297 181.98 54.5234C181.48 55.1094 180.883 55.543 180.188 55.8242C179.492 56.0977 178.719 56.2344 177.867 56.2344C177.188 56.2344 176.555 56.1484 175.969 55.9766C175.383 55.7969 174.855 55.5234 174.387 55.1562C173.926 54.7812 173.527 54.3047 173.191 53.7266C172.863 53.1484 172.609 52.457 172.43 51.6523C172.258 50.8477 172.172 49.9219 172.172 48.875V46.0039C172.172 44.6914 172.305 43.5742 172.57 42.6523C172.844 41.7305 173.23 40.9766 173.73 40.3906C174.23 39.8047 174.828 39.3789 175.523 39.1133C176.219 38.8398 176.992 38.7031 177.844 38.7031C178.531 38.7031 179.164 38.7891 179.742 38.9609C180.328 39.1328 180.852 39.4023 181.312 39.7695C181.781 40.1289 182.18 40.5977 182.508 41.1758C182.836 41.7461 183.086 42.4336 183.258 43.2383C183.438 44.0352 183.527 44.957 183.527 46.0039ZM180.434 49.2969V45.5703C180.434 44.9141 180.395 44.3438 180.316 43.8594C180.246 43.3672 180.141 42.9492 180 42.6055C179.859 42.2617 179.684 41.9844 179.473 41.7734C179.262 41.5547 179.02 41.3945 178.746 41.293C178.473 41.1914 178.172 41.1406 177.844 41.1406C177.438 41.1406 177.074 41.2227 176.754 41.3867C176.434 41.543 176.164 41.793 175.945 42.1367C175.727 42.4805 175.559 42.9375 175.441 43.5078C175.332 44.0703 175.277 44.7578 175.277 45.5703V49.2969C175.277 49.9531 175.312 50.5273 175.383 51.0195C175.461 51.5117 175.57 51.9336 175.711 52.2852C175.859 52.6367 176.035 52.9258 176.238 53.1523C176.449 53.3711 176.691 53.5352 176.965 53.6445C177.238 53.7461 177.539 53.7969 177.867 53.7969C178.281 53.7969 178.645 53.7148 178.957 53.5508C179.277 53.3867 179.547 53.1289 179.766 52.7773C179.984 52.418 180.148 51.9531 180.258 51.3828C180.375 50.8047 180.434 50.1094 180.434 49.2969ZM189.328 46.0977H191.074C191.691 46.0977 192.199 45.9922 192.598 45.7812C193.004 45.5625 193.305 45.2656 193.5 44.8906C193.703 44.5078 193.805 44.0664 193.805 43.5664C193.805 43.0742 193.715 42.6484 193.535 42.2891C193.355 41.9219 193.082 41.6406 192.715 41.4453C192.355 41.2422 191.895 41.1406 191.332 41.1406C190.879 41.1406 190.461 41.2305 190.078 41.4102C189.703 41.5898 189.402 41.8477 189.176 42.1836C188.957 42.5117 188.848 42.9062 188.848 43.3672H185.742C185.742 42.4453 185.984 41.6367 186.469 40.9414C186.961 40.2383 187.625 39.6875 188.461 39.2891C189.297 38.8906 190.23 38.6914 191.262 38.6914C192.387 38.6914 193.371 38.8789 194.215 39.2539C195.066 39.6211 195.727 40.1641 196.195 40.8828C196.672 41.6016 196.91 42.4922 196.91 43.5547C196.91 44.0625 196.789 44.5703 196.547 45.0781C196.312 45.5781 195.965 46.0312 195.504 46.4375C195.051 46.8359 194.492 47.1602 193.828 47.4102C193.172 47.6523 192.418 47.7734 191.566 47.7734H189.328V46.0977ZM189.328 48.4883V46.8359H191.566C192.527 46.8359 193.359 46.9492 194.062 47.1758C194.773 47.3945 195.359 47.707 195.82 48.1133C196.281 48.5117 196.621 48.9766 196.84 49.5078C197.066 50.0391 197.18 50.6094 197.18 51.2188C197.18 52.0156 197.031 52.7266 196.734 53.3516C196.438 53.9688 196.02 54.4922 195.48 54.9219C194.949 55.3516 194.324 55.6797 193.605 55.9062C192.887 56.125 192.109 56.2344 191.273 56.2344C190.547 56.2344 189.84 56.1367 189.152 55.9414C188.473 55.7383 187.859 55.4375 187.312 55.0391C186.766 54.6328 186.332 54.125 186.012 53.5156C185.691 52.8984 185.531 52.1836 185.531 51.3711H188.637C188.637 51.8398 188.75 52.2578 188.977 52.625C189.211 52.9922 189.531 53.2812 189.938 53.4922C190.352 53.6953 190.816 53.7969 191.332 53.7969C191.902 53.7969 192.391 53.6953 192.797 53.4922C193.211 53.2812 193.527 52.9844 193.746 52.6016C193.965 52.2109 194.074 51.7461 194.074 51.207C194.074 50.5664 193.953 50.0469 193.711 49.6484C193.469 49.25 193.121 48.957 192.668 48.7695C192.223 48.582 191.691 48.4883 191.074 48.4883H189.328Z" fill="white"/>
<path d="M111 88.5V98.5C111 99.6046 111.895 100.5 113 100.5H133C134.105 100.5 135 99.6046 135 98.5V88.5" stroke="#84CC16" stroke-width="1.5" stroke-linecap="round" stroke-linejoin="round"/>
<path d="M123 73.5V91.5M123 91.5L117.75 86.25M123 91.5L128.25 86.25" stroke="#84CC16" stroke-width="1.5" stroke-linecap="round" stroke-linejoin="round"/>
<path d="M76.2266 133H72.5469L72.5703 130.469H76.2266C77.2188 130.469 78.0508 130.25 78.7227 129.812C79.3945 129.367 79.9023 128.73 80.2461 127.902C80.5898 127.066 80.7617 126.066 80.7617 124.902V124.023C80.7617 123.125 80.6641 122.332 80.4688 121.645C80.2734 120.957 79.9844 120.379 79.6016 119.91C79.2266 119.441 78.7617 119.086 78.207 118.844C77.6523 118.602 77.0156 118.48 76.2969 118.48H72.4766V115.938H76.2969C77.4375 115.938 78.4766 116.129 79.4141 116.512C80.3594 116.895 81.1758 117.445 81.8633 118.164C82.5586 118.875 83.0898 119.727 83.457 120.719C83.832 121.711 84.0195 122.82 84.0195 124.047V124.902C84.0195 126.121 83.832 127.23 83.457 128.23C83.0898 129.223 82.5586 130.074 81.8633 130.785C81.1758 131.496 80.3555 132.043 79.4023 132.426C78.4492 132.809 77.3906 133 76.2266 133ZM74.3516 115.938V133H71.1289V115.938H74.3516ZM85.9766 126.789V126.543C85.9766 125.613 86.1094 124.758 86.375 123.977C86.6406 123.188 87.0273 122.504 87.5352 121.926C88.043 121.348 88.6641 120.898 89.3984 120.578C90.1328 120.25 90.9688 120.086 91.9062 120.086C92.8594 120.086 93.7031 120.25 94.4375 120.578C95.1797 120.898 95.8047 121.348 96.3125 121.926C96.8203 122.504 97.207 123.188 97.4727 123.977C97.7383 124.758 97.8711 125.613 97.8711 126.543V126.789C97.8711 127.711 97.7383 128.566 97.4727 129.355C97.207 130.137 96.8203 130.82 96.3125 131.406C95.8047 131.984 95.1836 132.434 94.4492 132.754C93.7148 133.074 92.875 133.234 91.9297 133.234C90.9922 133.234 90.1523 133.074 89.4102 132.754C88.668 132.434 88.043 131.984 87.5352 131.406C87.0273 130.82 86.6406 130.137 86.375 129.355C86.1094 128.566 85.9766 127.711 85.9766 126.789ZM89.0703 126.543V126.789C89.0703 127.344 89.125 127.863 89.2344 128.348C89.3438 128.832 89.5117 129.258 89.7383 129.625C89.9648 129.992 90.2578 130.281 90.6172 130.492C90.9844 130.695 91.4219 130.797 91.9297 130.797C92.4297 130.797 92.8594 130.695 93.2188 130.492C93.5781 130.281 93.8711 129.992 94.0977 129.625C94.332 129.258 94.5039 128.832 94.6133 128.348C94.7227 127.863 94.7773 127.344 94.7773 126.789V126.543C94.7773 125.996 94.7227 125.484 94.6133 125.008C94.5039 124.523 94.332 124.098 94.0977 123.73C93.8711 123.355 93.5742 123.062 93.207 122.852C92.8477 122.633 92.4141 122.523 91.9062 122.523C91.4062 122.523 90.9766 122.633 90.6172 122.852C90.2578 123.062 89.9648 123.355 89.7383 123.73C89.5117 124.098 89.3438 124.523 89.2344 125.008C89.125 125.484 89.0703 125.996 89.0703 126.543ZM103.648 129.953L106.426 120.32H108.395L107.809 123.648L105.008 133H103.309L103.648 129.953ZM102.113 120.32L104.199 129.977L104.387 133H102.43L99.1016 120.32H102.113ZM110.973 129.836L113.012 120.32H116.012L112.707 133H110.75L110.973 129.836ZM108.699 120.32L111.453 129.859L111.816 133H110.117L107.293 123.648L106.719 120.32H108.699ZM120.875 123.027V133H117.781V120.32H120.688L120.875 123.027ZM120.383 126.203H119.469C119.477 125.281 119.602 124.445 119.844 123.695C120.086 122.945 120.426 122.301 120.863 121.762C121.309 121.223 121.836 120.809 122.445 120.52C123.055 120.23 123.734 120.086 124.484 120.086C125.094 120.086 125.645 120.172 126.137 120.344C126.629 120.516 127.051 120.789 127.402 121.164C127.762 121.539 128.035 122.031 128.223 122.641C128.418 123.242 128.516 123.984 128.516 124.867V133H125.398V124.844C125.398 124.266 125.312 123.809 125.141 123.473C124.977 123.137 124.734 122.898 124.414 122.758C124.102 122.617 123.715 122.547 123.254 122.547C122.777 122.547 122.359 122.645 122 122.84C121.648 123.027 121.352 123.289 121.109 123.625C120.875 123.961 120.695 124.348 120.57 124.785C120.445 125.223 120.383 125.695 120.383 126.203ZM134.527 115V133H131.422V115H134.527ZM136.93 126.789V126.543C136.93 125.613 137.062 124.758 137.328 123.977C137.594 123.188 137.98 122.504 138.488 121.926C138.996 121.348 139.617 120.898 140.352 120.578C141.086 120.25 141.922 120.086 142.859 120.086C143.812 120.086 144.656 120.25 145.391 120.578C146.133 120.898 146.758 121.348 147.266 121.926C147.773 122.504 148.16 123.188 148.426 123.977C148.691 124.758 148.824 125.613 148.824 126.543V126.789C148.824 127.711 148.691 128.566 148.426 129.355C148.16 130.137 147.773 130.82 147.266 131.406C146.758 131.984 146.137 132.434 145.402 132.754C144.668 133.074 143.828 133.234 142.883 133.234C141.945 133.234 141.105 133.074 140.363 132.754C139.621 132.434 138.996 131.984 138.488 131.406C137.98 130.82 137.594 130.137 137.328 129.355C137.062 128.566 136.93 127.711 136.93 126.789ZM140.023 126.543V126.789C140.023 127.344 140.078 127.863 140.188 128.348C140.297 128.832 140.465 129.258 140.691 129.625C140.918 129.992 141.211 130.281 141.57 130.492C141.938 130.695 142.375 130.797 142.883 130.797C143.383 130.797 143.812 130.695 144.172 130.492C144.531 130.281 144.824 129.992 145.051 129.625C145.285 129.258 145.457 128.832 145.566 128.348C145.676 127.863 145.73 127.344 145.73 126.789V126.543C145.73 125.996 145.676 125.484 145.566 125.008C145.457 124.523 145.285 124.098 145.051 123.73C144.824 123.355 144.527 123.062 144.16 122.852C143.801 122.633 143.367 122.523 142.859 122.523C142.359 122.523 141.93 122.633 141.57 122.852C141.211 123.062 140.918 123.355 140.691 123.73C140.465 124.098 140.297 124.523 140.188 125.008C140.078 125.484 140.023 125.996 140.023 126.543ZM158.059 130.305V124.457C158.059 124.027 157.984 123.656 157.836 123.344C157.688 123.031 157.461 122.789 157.156 122.617C156.852 122.445 156.465 122.359 155.996 122.359C155.582 122.359 155.219 122.43 154.906 122.57C154.602 122.711 154.367 122.91 154.203 123.168C154.039 123.418 153.957 123.707 153.957 124.035H150.852C150.852 123.512 150.977 123.016 151.227 122.547C151.477 122.07 151.832 121.648 152.293 121.281C152.762 120.906 153.32 120.613 153.969 120.402C154.625 120.191 155.359 120.086 156.172 120.086C157.133 120.086 157.988 120.25 158.738 120.578C159.496 120.898 160.09 121.383 160.52 122.031C160.957 122.68 161.176 123.496 161.176 124.48V130.012C161.176 130.645 161.215 131.188 161.293 131.641C161.379 132.086 161.504 132.473 161.668 132.801V133H158.516C158.367 132.68 158.254 132.273 158.176 131.781C158.098 131.281 158.059 130.789 158.059 130.305ZM158.492 125.277L158.516 127.117H156.559C156.074 127.117 155.648 127.168 155.281 127.27C154.914 127.363 154.613 127.504 154.379 127.691C154.145 127.871 153.969 128.09 153.852 128.348C153.734 128.598 153.676 128.883 153.676 129.203C153.676 129.516 153.746 129.797 153.887 130.047C154.035 130.297 154.246 130.496 154.52 130.645C154.801 130.785 155.129 130.855 155.504 130.855C156.051 130.855 156.527 130.746 156.934 130.527C157.34 130.301 157.656 130.027 157.883 129.707C158.109 129.387 158.23 129.082 158.246 128.793L159.137 130.129C159.027 130.449 158.863 130.789 158.645 131.148C158.426 131.508 158.145 131.844 157.801 132.156C157.457 132.469 157.043 132.727 156.559 132.93C156.074 133.133 155.512 133.234 154.871 133.234C154.051 133.234 153.316 133.07 152.668 132.742C152.02 132.414 151.508 131.965 151.133 131.395C150.758 130.824 150.57 130.176 150.57 129.449C150.57 128.777 150.695 128.184 150.945 127.668C151.195 127.152 151.566 126.719 152.059 126.367C152.551 126.008 153.16 125.738 153.887 125.559C154.621 125.371 155.461 125.277 156.406 125.277H158.492ZM171.57 130.305V115H174.688V133H171.875L171.57 130.305ZM163.426 126.812V126.566C163.426 125.598 163.535 124.719 163.754 123.93C163.98 123.133 164.309 122.449 164.738 121.879C165.168 121.309 165.688 120.867 166.297 120.555C166.914 120.242 167.613 120.086 168.395 120.086C169.152 120.086 169.812 120.238 170.375 120.543C170.945 120.848 171.43 121.281 171.828 121.844C172.234 122.406 172.559 123.074 172.801 123.848C173.043 124.613 173.219 125.457 173.328 126.379V127.047C173.219 127.945 173.043 128.77 172.801 129.52C172.559 130.27 172.234 130.926 171.828 131.488C171.43 132.043 170.945 132.473 170.375 132.777C169.805 133.082 169.137 133.234 168.371 133.234C167.598 133.234 166.902 133.074 166.285 132.754C165.676 132.434 165.156 131.984 164.727 131.406C164.305 130.828 163.98 130.148 163.754 129.367C163.535 128.586 163.426 127.734 163.426 126.812ZM166.531 126.566V126.812C166.531 127.359 166.578 127.871 166.672 128.348C166.766 128.824 166.918 129.246 167.129 129.613C167.34 129.973 167.609 130.254 167.938 130.457C168.273 130.66 168.68 130.762 169.156 130.762C169.766 130.762 170.266 130.629 170.656 130.363C171.055 130.09 171.363 129.719 171.582 129.25C171.801 128.773 171.941 128.238 172.004 127.645V125.805C171.973 125.336 171.891 124.902 171.758 124.504C171.633 124.105 171.453 123.762 171.219 123.473C170.992 123.184 170.711 122.957 170.375 122.793C170.039 122.629 169.641 122.547 169.18 122.547C168.703 122.547 168.297 122.652 167.961 122.863C167.625 123.066 167.352 123.352 167.141 123.719C166.93 124.086 166.773 124.512 166.672 124.996C166.578 125.48 166.531 126.004 166.531 126.566Z" fill="#84CC16"/>
<defs>
<radialGradient id="paint0_radial_123_146" cx="0" cy="0" r="1" gradientUnits="userSpaceOnUse" gradientTransform="translate(110.325 111) scale(110.325 110.325)">
<stop offset="0.1782"/>
<stop offset="0.2434" stop-color="#242424"/>
<stop offset="0.3593" stop-color="#5D5D5D"/>
<stop offset="0.4755" stop-color="#8F8F8F"/>
<stop offset="0.5892" stop-color="#B7B7B7"/>
<stop offset="0.7001" stop-color="#D6D6D6"/>
<stop offset="0.8073" stop-color="#EDEDED"/>
<stop offset="0.9091" stop-color="#F5F5F5"/>
<stop offset="1" stop-color="#F5F5F5"/>
</radialGradient>
<radialGradient id="paint1_radial_123_146" cx="0" cy="0" r="1" gradientUnits="userSpaceOnUse" gradientTransform="translate(180.733 50.4051) scale(36.5086 36.5086)">
<stop offset="0.1782"/>
<stop offset="0.2434" stop-color="#242424"/>
<stop offset="0.3593" stop-color="#5D5D5D"/>
<stop offset="0.4755" stop-color="#8F8F8F"/>
<stop offset="0.5892" stop-color="#B7B7B7"/>
<stop offset="0.7001" stop-color="#D6D6D6"/>
<stop offset="0.8073" stop-color="#EDEDED"/>
<stop offset="0.9091" stop-color="#FAFAFA"/>
<stop offset="1" stop-color="white"/>
</radialGradient>
</defs>
</svg>
