<svg width="250" height="222" viewBox="0 0 250 222" fill="none" xmlns="http://www.w3.org/2000/svg">
<path d="M110.325 221.325C171.255 221.325 220.65 171.931 220.65 111C220.65 50.0694 171.255 0.675293 110.325 0.675293C49.3941 0.675293 0 50.0694 0 111C0 171.931 49.3941 221.325 110.325 221.325Z" fill="url(#paint0_radial_123_50)"/>
<path d="M123.395 177.218C163.24 177.218 195.54 144.917 195.54 105.072C195.54 65.2277 163.24 32.9271 123.395 32.9271C83.55 32.9271 51.2495 65.2277 51.2495 105.072C51.2495 144.917 83.55 177.218 123.395 177.218Z" fill="white"/>
<path d="M123.395 193.575C111.448 193.575 99.857 191.235 88.9451 186.62C78.4063 182.163 68.9417 175.782 60.8138 167.654C52.6859 159.526 46.3047 150.061 41.8478 139.522C37.2323 128.61 34.8925 117.019 34.8925 105.073C34.8925 93.1261 37.2323 81.5349 41.8478 70.623C46.3047 60.0842 52.6873 50.6196 60.8138 42.4931C68.939 34.3665 78.4049 27.9853 88.9451 23.527C99.8557 18.9116 111.447 16.5718 123.395 16.5718C135.343 16.5718 146.934 18.9116 157.844 23.527C168.385 27.9853 177.849 34.3665 185.976 42.4931L184.043 44.4243C176.167 36.5478 166.995 30.3634 156.78 26.0418C146.208 21.5699 134.975 19.3025 123.395 19.3025C111.815 19.3025 100.583 21.5699 90.0098 26.0418C79.7949 30.3634 70.6228 36.5465 62.7464 44.4243C54.8686 52.3021 48.6841 61.4741 44.3639 71.6877C39.892 82.2607 37.6246 93.4938 37.6246 105.073C37.6246 116.652 39.892 127.883 44.3639 138.458C48.6841 148.671 54.8686 157.843 62.7464 165.721C70.6242 173.599 79.7963 179.783 90.0098 184.102C100.583 188.574 111.816 190.841 123.395 190.841C134.974 190.841 146.205 188.574 156.78 184.102C166.993 179.782 176.165 173.598 184.043 165.721C191.921 157.843 198.105 148.67 202.426 138.458C206.898 127.885 209.165 116.652 209.165 105.073V103.706H247.036V106.439H211.889C211.717 117.903 209.382 129.027 204.943 139.522C200.486 150.061 194.105 159.526 185.977 167.654C177.849 175.782 168.385 182.163 157.846 186.62C146.933 191.235 135.343 193.575 123.395 193.575Z" fill="#06B6D4"/>
<path d="M237.978 116.252L236.114 114.25L245.986 105.075L236.114 95.8978L237.978 93.8955L250 105.075L237.978 116.252Z" fill="#06B6D4"/>
<path d="M180.732 86.9144C200.895 86.9144 217.241 70.5686 217.241 50.4051C217.241 30.2415 200.895 13.8958 180.732 13.8958C160.568 13.8958 144.222 30.2415 144.222 50.4051C144.222 70.5686 160.568 86.9144 180.732 86.9144Z" fill="url(#paint1_radial_123_50)"/>
<path d="M201.936 65.3257C211.26 56.0025 211.26 40.8865 201.936 31.5632C192.613 22.2399 177.497 22.2399 168.174 31.5632C158.851 40.8865 158.851 56.0025 168.174 65.3257C177.497 74.649 192.613 74.649 201.936 65.3257Z" fill="#06B6D4"/>
<path d="M185.059 74.3678C170.764 74.3678 159.135 62.7384 159.135 48.4438C159.135 34.1492 170.764 22.5198 185.059 22.5198C199.353 22.5198 210.983 34.1492 210.983 48.4438C210.983 62.7384 199.353 74.3678 185.059 74.3678ZM185.059 26.6199C173.025 26.6199 163.235 36.4112 163.235 48.4438C163.235 60.4765 173.026 70.2677 185.059 70.2677C197.093 70.2677 206.882 60.4765 206.882 48.4438C206.882 36.4112 197.091 26.6199 185.059 26.6199Z" fill="white"/>
<path d="M184.027 46.0039V48.875C184.027 50.1875 183.895 51.3086 183.629 52.2383C183.363 53.168 182.98 53.9297 182.48 54.5234C181.98 55.1094 181.383 55.543 180.688 55.8242C179.992 56.0977 179.219 56.2344 178.367 56.2344C177.688 56.2344 177.055 56.1484 176.469 55.9766C175.883 55.7969 175.355 55.5234 174.887 55.1562C174.426 54.7812 174.027 54.3047 173.691 53.7266C173.363 53.1484 173.109 52.457 172.93 51.6523C172.758 50.8477 172.672 49.9219 172.672 48.875V46.0039C172.672 44.6914 172.805 43.5742 173.07 42.6523C173.344 41.7305 173.73 40.9766 174.23 40.3906C174.73 39.8047 175.328 39.3789 176.023 39.1133C176.719 38.8398 177.492 38.7031 178.344 38.7031C179.031 38.7031 179.664 38.7891 180.242 38.9609C180.828 39.1328 181.352 39.4023 181.812 39.7695C182.281 40.1289 182.68 40.5977 183.008 41.1758C183.336 41.7461 183.586 42.4336 183.758 43.2383C183.938 44.0352 184.027 44.957 184.027 46.0039ZM180.934 49.2969V45.5703C180.934 44.9141 180.895 44.3438 180.816 43.8594C180.746 43.3672 180.641 42.9492 180.5 42.6055C180.359 42.2617 180.184 41.9844 179.973 41.7734C179.762 41.5547 179.52 41.3945 179.246 41.293C178.973 41.1914 178.672 41.1406 178.344 41.1406C177.938 41.1406 177.574 41.2227 177.254 41.3867C176.934 41.543 176.664 41.793 176.445 42.1367C176.227 42.4805 176.059 42.9375 175.941 43.5078C175.832 44.0703 175.777 44.7578 175.777 45.5703V49.2969C175.777 49.9531 175.812 50.5273 175.883 51.0195C175.961 51.5117 176.07 51.9336 176.211 52.2852C176.359 52.6367 176.535 52.9258 176.738 53.1523C176.949 53.3711 177.191 53.5352 177.465 53.6445C177.738 53.7461 178.039 53.7969 178.367 53.7969C178.781 53.7969 179.145 53.7148 179.457 53.5508C179.777 53.3867 180.047 53.1289 180.266 52.7773C180.484 52.418 180.648 51.9531 180.758 51.3828C180.875 50.8047 180.934 50.1094 180.934 49.2969ZM194.41 38.8906V56H191.305V42.5117L187.191 43.8711V41.3633L194.059 38.8906H194.41Z" fill="white"/>
<path d="M131 92.5L137 98.5" stroke="#06B6D4" stroke-width="1.5" stroke-linecap="round" stroke-linejoin="round"/>
<path d="M110 83.5C110 90.1274 115.373 95.5 122 95.5C125.319 95.5 128.324 94.1522 130.497 91.974C132.662 89.8033 134 86.808 134 83.5C134 76.8726 128.627 71.5 122 71.5C115.373 71.5 110 76.8726 110 83.5Z" stroke="#06B6D4" stroke-width="1.5" stroke-linecap="round" stroke-linejoin="round"/>
<path d="M96.5586 126.57C96.5586 126.242 96.5078 125.949 96.4062 125.691C96.3125 125.426 96.1367 125.188 95.8789 124.977C95.6289 124.758 95.2734 124.547 94.8125 124.344C94.3594 124.133 93.7734 123.914 93.0547 123.688C92.2578 123.438 91.5156 123.156 90.8281 122.844C90.1406 122.531 89.5352 122.168 89.0117 121.754C88.4961 121.34 88.0938 120.863 87.8047 120.324C87.5156 119.777 87.3711 119.145 87.3711 118.426C87.3711 117.723 87.5195 117.082 87.8164 116.504C88.1211 115.926 88.5508 115.43 89.1055 115.016C89.6602 114.594 90.3125 114.27 91.0625 114.043C91.8203 113.816 92.6562 113.703 93.5703 113.703C94.8359 113.703 95.9297 113.934 96.8516 114.395C97.7812 114.855 98.5 115.48 99.0078 116.27C99.5156 117.059 99.7695 117.945 99.7695 118.93H96.5586C96.5586 118.398 96.4453 117.93 96.2188 117.523C96 117.117 95.6641 116.797 95.2109 116.562C94.7656 116.328 94.2031 116.211 93.5234 116.211C92.8672 116.211 92.3203 116.309 91.8828 116.504C91.4531 116.699 91.1289 116.965 90.9102 117.301C90.6992 117.637 90.5938 118.012 90.5938 118.426C90.5938 118.738 90.668 119.02 90.8164 119.27C90.9648 119.512 91.1875 119.742 91.4844 119.961C91.7812 120.172 92.1484 120.371 92.5859 120.559C93.0312 120.738 93.5469 120.918 94.1328 121.098C95.0703 121.379 95.8906 121.691 96.5938 122.035C97.3047 122.379 97.8945 122.77 98.3633 123.207C98.8398 123.645 99.1953 124.137 99.4297 124.684C99.6719 125.23 99.793 125.852 99.793 126.547C99.793 127.281 99.6484 127.938 99.3594 128.516C99.0703 129.094 98.6562 129.586 98.1172 129.992C97.5781 130.398 96.9297 130.707 96.1719 130.918C95.4219 131.129 94.582 131.234 93.6523 131.234C92.8242 131.234 92.0039 131.125 91.1914 130.906C90.3867 130.68 89.6562 130.344 89 129.898C88.3438 129.445 87.8203 128.875 87.4297 128.188C87.0391 127.492 86.8438 126.68 86.8438 125.75H90.0781C90.0781 126.289 90.1641 126.75 90.3359 127.133C90.5156 127.508 90.7656 127.816 91.0859 128.059C91.4141 128.293 91.7969 128.465 92.2344 128.574C92.6719 128.684 93.1445 128.738 93.6523 128.738C94.3086 128.738 94.8477 128.648 95.2695 128.469C95.6992 128.281 96.0195 128.023 96.2305 127.695C96.4492 127.367 96.5586 126.992 96.5586 126.57ZM107.738 131.234C106.777 131.234 105.914 131.078 105.148 130.766C104.383 130.453 103.73 130.02 103.191 129.465C102.66 128.902 102.25 128.25 101.961 127.508C101.68 126.758 101.539 125.953 101.539 125.094V124.625C101.539 123.648 101.68 122.762 101.961 121.965C102.242 121.16 102.641 120.469 103.156 119.891C103.672 119.312 104.289 118.867 105.008 118.555C105.727 118.242 106.52 118.086 107.387 118.086C108.285 118.086 109.078 118.238 109.766 118.543C110.453 118.84 111.027 119.262 111.488 119.809C111.949 120.355 112.297 121.012 112.531 121.777C112.766 122.535 112.883 123.375 112.883 124.297V125.598H102.945V123.465H109.836V123.23C109.82 122.738 109.727 122.289 109.555 121.883C109.383 121.469 109.117 121.141 108.758 120.898C108.398 120.648 107.934 120.523 107.363 120.523C106.902 120.523 106.5 120.625 106.156 120.828C105.82 121.023 105.539 121.305 105.312 121.672C105.094 122.031 104.93 122.461 104.82 122.961C104.711 123.461 104.656 124.016 104.656 124.625V125.094C104.656 125.625 104.727 126.117 104.867 126.57C105.016 127.023 105.23 127.418 105.512 127.754C105.801 128.082 106.145 128.34 106.543 128.527C106.949 128.707 107.41 128.797 107.926 128.797C108.574 128.797 109.16 128.672 109.684 128.422C110.215 128.164 110.676 127.785 111.066 127.285L112.625 128.902C112.359 129.293 112 129.668 111.547 130.027C111.102 130.387 110.562 130.68 109.93 130.906C109.297 131.125 108.566 131.234 107.738 131.234ZM121.941 128.305V122.457C121.941 122.027 121.867 121.656 121.719 121.344C121.57 121.031 121.344 120.789 121.039 120.617C120.734 120.445 120.348 120.359 119.879 120.359C119.465 120.359 119.102 120.43 118.789 120.57C118.484 120.711 118.25 120.91 118.086 121.168C117.922 121.418 117.84 121.707 117.84 122.035H114.734C114.734 121.512 114.859 121.016 115.109 120.547C115.359 120.07 115.715 119.648 116.176 119.281C116.645 118.906 117.203 118.613 117.852 118.402C118.508 118.191 119.242 118.086 120.055 118.086C121.016 118.086 121.871 118.25 122.621 118.578C123.379 118.898 123.973 119.383 124.402 120.031C124.84 120.68 125.059 121.496 125.059 122.48V128.012C125.059 128.645 125.098 129.188 125.176 129.641C125.262 130.086 125.387 130.473 125.551 130.801V131H122.398C122.25 130.68 122.137 130.273 122.059 129.781C121.98 129.281 121.941 128.789 121.941 128.305ZM122.375 123.277L122.398 125.117H120.441C119.957 125.117 119.531 125.168 119.164 125.27C118.797 125.363 118.496 125.504 118.262 125.691C118.027 125.871 117.852 126.09 117.734 126.348C117.617 126.598 117.559 126.883 117.559 127.203C117.559 127.516 117.629 127.797 117.77 128.047C117.918 128.297 118.129 128.496 118.402 128.645C118.684 128.785 119.012 128.855 119.387 128.855C119.934 128.855 120.41 128.746 120.816 128.527C121.223 128.301 121.539 128.027 121.766 127.707C121.992 127.387 122.113 127.082 122.129 126.793L123.02 128.129C122.91 128.449 122.746 128.789 122.527 129.148C122.309 129.508 122.027 129.844 121.684 130.156C121.34 130.469 120.926 130.727 120.441 130.93C119.957 131.133 119.395 131.234 118.754 131.234C117.934 131.234 117.199 131.07 116.551 130.742C115.902 130.414 115.391 129.965 115.016 129.395C114.641 128.824 114.453 128.176 114.453 127.449C114.453 126.777 114.578 126.184 114.828 125.668C115.078 125.152 115.449 124.719 115.941 124.367C116.434 124.008 117.043 123.738 117.77 123.559C118.504 123.371 119.344 123.277 120.289 123.277H122.375ZM130.941 120.91V131H127.848V118.32H130.777L130.941 120.91ZM134.797 118.238L134.75 121.121C134.578 121.09 134.383 121.066 134.164 121.051C133.953 121.035 133.754 121.027 133.566 121.027C133.09 121.027 132.672 121.094 132.312 121.227C131.953 121.352 131.652 121.535 131.41 121.777C131.176 122.02 130.996 122.316 130.871 122.668C130.746 123.012 130.676 123.402 130.66 123.84L129.992 123.758C129.992 122.953 130.074 122.207 130.238 121.52C130.402 120.832 130.641 120.23 130.953 119.715C131.266 119.199 131.656 118.801 132.125 118.52C132.602 118.23 133.148 118.086 133.766 118.086C133.938 118.086 134.121 118.102 134.316 118.133C134.52 118.156 134.68 118.191 134.797 118.238ZM141.465 128.797C141.902 128.797 142.293 128.711 142.637 128.539C142.98 128.367 143.254 128.125 143.457 127.812C143.668 127.5 143.781 127.137 143.797 126.723H146.715C146.699 127.582 146.457 128.352 145.988 129.031C145.52 129.711 144.895 130.25 144.113 130.648C143.34 131.039 142.473 131.234 141.512 131.234C140.535 131.234 139.684 131.07 138.957 130.742C138.23 130.414 137.625 129.957 137.141 129.371C136.664 128.785 136.305 128.105 136.062 127.332C135.828 126.559 135.711 125.73 135.711 124.848V124.473C135.711 123.59 135.828 122.762 136.062 121.988C136.305 121.215 136.664 120.535 137.141 119.949C137.625 119.363 138.23 118.906 138.957 118.578C139.684 118.25 140.531 118.086 141.5 118.086C142.523 118.086 143.422 118.285 144.195 118.684C144.977 119.082 145.586 119.645 146.023 120.371C146.469 121.098 146.699 121.953 146.715 122.938H143.797C143.781 122.484 143.68 122.078 143.492 121.719C143.305 121.359 143.039 121.07 142.695 120.852C142.352 120.633 141.934 120.523 141.441 120.523C140.918 120.523 140.48 120.633 140.129 120.852C139.785 121.07 139.516 121.371 139.32 121.754C139.133 122.129 139 122.551 138.922 123.02C138.852 123.48 138.816 123.965 138.816 124.473V124.848C138.816 125.363 138.852 125.855 138.922 126.324C139 126.793 139.133 127.215 139.32 127.59C139.516 127.957 139.785 128.25 140.129 128.469C140.48 128.688 140.926 128.797 141.465 128.797ZM151.812 113V131H148.707V113H151.812ZM151.32 124.203H150.406C150.406 123.32 150.523 122.508 150.758 121.766C150.992 121.023 151.324 120.379 151.754 119.832C152.184 119.277 152.695 118.848 153.289 118.543C153.891 118.238 154.555 118.086 155.281 118.086C155.906 118.086 156.473 118.176 156.98 118.355C157.496 118.527 157.938 118.805 158.305 119.188C158.672 119.57 158.953 120.07 159.148 120.688C159.352 121.297 159.453 122.039 159.453 122.914V131H156.336V122.891C156.336 122.305 156.25 121.844 156.078 121.508C155.906 121.164 155.66 120.918 155.34 120.77C155.027 120.621 154.641 120.547 154.18 120.547C153.68 120.547 153.25 120.645 152.891 120.84C152.531 121.027 152.234 121.289 152 121.625C151.773 121.961 151.602 122.348 151.484 122.785C151.375 123.223 151.32 123.695 151.32 124.203Z" fill="#06B6D4"/>
<defs>
<radialGradient id="paint0_radial_123_50" cx="0" cy="0" r="1" gradientUnits="userSpaceOnUse" gradientTransform="translate(110.324 111) scale(110.325)">
<stop offset="0.1782"/>
<stop offset="0.2434" stop-color="#242424"/>
<stop offset="0.3593" stop-color="#5D5D5D"/>
<stop offset="0.4755" stop-color="#8F8F8F"/>
<stop offset="0.5892" stop-color="#B7B7B7"/>
<stop offset="0.7001" stop-color="#D6D6D6"/>
<stop offset="0.8073" stop-color="#EDEDED"/>
<stop offset="0.9091" stop-color="#F5F5F5"/>
<stop offset="1" stop-color="#F5F5F5"/>
</radialGradient>
<radialGradient id="paint1_radial_123_50" cx="0" cy="0" r="1" gradientUnits="userSpaceOnUse" gradientTransform="translate(180.732 50.4051) scale(36.5086 36.5086)">
<stop offset="0.1782"/>
<stop offset="0.2434" stop-color="#242424"/>
<stop offset="0.3593" stop-color="#5D5D5D"/>
<stop offset="0.4755" stop-color="#8F8F8F"/>
<stop offset="0.5892" stop-color="#B7B7B7"/>
<stop offset="0.7001" stop-color="#D6D6D6"/>
<stop offset="0.8073" stop-color="#EDEDED"/>
<stop offset="0.9091" stop-color="#F7F7F7"/>
<stop offset="1" stop-color="#F5F5F5"/>
</radialGradient>
</defs>
</svg>
